<svg id="Layer_1" data-name="Layer 1" xmlns="http://www.w3.org/2000/svg" viewBox="0 0 59.49 59.5"><defs><style>.cls-1{fill:#fff;fill-rule:evenodd;}</style></defs><path class="cls-1" d="M18.66,58.8c.55.23,1.11.44,1.68.64a2.44,2.44,0,0,0,.53.05,2,2,0,0,0,1-.33A1.53,1.53,0,0,0,22.37,58c0-.73,0-2.65,0-5.19-8.27,1.84-10-4.09-10-4.09C11,45.17,9,44.23,9,44.23c-2.7-1.89.2-1.85.2-1.85,3,.21,4.56,3.14,4.56,3.14,2.65,4.66,7,3.31,8.66,2.53A6.55,6.55,0,0,1,24.32,44c-6.61-.77-13.55-3.39-13.55-15.08a12,12,0,0,1,3.06-8.18,11.18,11.18,0,0,1,.29-8.07s2.5-.82,8.18,3.12a27.68,27.68,0,0,1,14.89,0c5.68-3.94,8.17-3.12,8.17-3.12a11.15,11.15,0,0,1,.3,8.07,11.91,11.91,0,0,1,3.06,8.18c0,11.72-7,14.3-13.58,15.05,1.06.94,2,2.8,2,5.65,0,4.08,0,7.37,0,8.37a1.55,1.55,0,0,0,.51,1.2,1.43,1.43,0,0,0,.62.28,1.75,1.75,0,0,0,.91,0C51.48,54.35,59.49,42.82,59.49,30.5,59.49,13.65,46.17,0,29.74,0S0,13.65,0,30.5A30.49,30.49,0,0,0,18.66,58.8"/></svg>