<svg id="Layer_1" data-name="Layer 1" xmlns="http://www.w3.org/2000/svg" viewBox="0 0 30.73 30.73"><defs><style>.cls-1{fill:#231f20;stroke:#231f20;stroke-miterlimit:10;}.cls-2{fill:#fff;fill-rule:evenodd;}</style></defs><rect class="cls-1" x="0.5" y="0.5" width="29.73" height="29.73"/><path class="cls-2" d="M14.92,0A15,15,0,0,0,.12,15.24,15.21,15.21,0,0,0,10.25,29.7c.74.14,1-.33,1-.73s0-1.33,0-2.6c-4.12.92-5-2-5-2A4,4,0,0,0,4.61,22.1c-1.35-.94.1-.93.1-.93A3.15,3.15,0,0,1,7,22.75,3.1,3.1,0,0,0,11.28,24a3.39,3.39,0,0,1,.94-2c-3.28-.38-6.74-1.69-6.74-7.53A6,6,0,0,1,7,10.35a5.59,5.59,0,0,1,.14-4s1.24-.41,4.07,1.56a13.71,13.71,0,0,1,7.41,0c2.83-2,4.07-1.56,4.07-1.56a5.59,5.59,0,0,1,.14,4,6,6,0,0,1,1.53,4.09c0,5.86-3.46,7.15-6.76,7.52a3.7,3.7,0,0,1,1,2.82c0,2,0,3.69,0,4.19s.27.88,1,.73A15.22,15.22,0,0,0,29.73,15.24,15,15,0,0,0,14.92,0Z" transform="translate(0.5 0.5)"/></svg>